<svg width="103" height="50" viewBox="0 0 103 50" fill="none" xmlns="http://www.w3.org/2000/svg">
<mask id="path-1-outside-1_343_63" maskUnits="userSpaceOnUse" x="-1" y="6" width="101" height="38" fill="black">
<rect fill="white" x="-1" y="6" width="101" height="38"/>
<path d="M2 41L2 27.5H6.5L6.5 36.5H20V41H2ZM2 14V9.5H15.5V14H2ZM6.5 27.5V23H15.5V27.5H6.5ZM15.5 23V14H20V23H15.5ZM38 41V36.5H51.5V41H38ZM38 14V9.5H51.5V14H38ZM42.5 27.5V23H51.5V27.5H42.5ZM51.5 36.5V27.5H56V36.5H51.5ZM51.5 23V14H56V23H51.5ZM74 32V27.5H78.5V18.5H74V14H78.5V9.5H83V14H87.5V9.5H92V14H96.5V18.5H92V27.5H96.5V32H92V41H87.5V32H83V41H78.5V32H74ZM83 27.5H87.5V18.5H83V27.5Z"/>
</mask>
<path d="M2 41L2 27.5H6.5L6.5 36.5H20V41H2ZM2 14V9.5H15.5V14H2ZM6.5 27.5V23H15.5V27.5H6.5ZM15.5 23V14H20V23H15.5ZM38 41V36.5H51.5V41H38ZM38 14V9.5H51.5V14H38ZM42.5 27.5V23H51.5V27.5H42.5ZM51.5 36.5V27.5H56V36.5H51.5ZM51.5 23V14H56V23H51.5ZM74 32V27.5H78.5V18.5H74V14H78.5V9.5H83V14H87.5V9.5H92V14H96.5V18.5H92V27.5H96.5V32H92V41H87.5V32H83V41H78.5V32H74ZM83 27.5H87.5V18.5H83V27.5Z" fill="#F9EE32"/>
<path d="M2 41H-1V44H2V41ZM2 27.5V24.5H-1V27.5H2ZM6.5 27.5H9.5V24.5H6.5V27.5ZM6.5 36.5H3.5V39.5H6.5V36.5ZM20 36.5H23V33.5H20V36.5ZM20 41V44H23V41H20ZM2 14H-1V17H2V14ZM2 9.5L2 6.5H-1L-1 9.5H2ZM15.5 9.5H18.5V6.5H15.5V9.5ZM15.5 14V17H18.5V14H15.5ZM6.5 27.5H3.5V30.5H6.5V27.5ZM6.5 23V20H3.5V23H6.5ZM15.5 23H18.5V20H15.5V23ZM15.5 27.5V30.5H18.5V27.5H15.5ZM15.5 23H12.5V26H15.5V23ZM15.5 14V11H12.5V14H15.5ZM20 14H23V11H20V14ZM20 23V26H23V23H20ZM5 41L5 27.5H-1L-1 41H5ZM2 30.5H6.5V24.5H2V30.5ZM3.5 27.5V36.5H9.5V27.5H3.5ZM6.5 39.5H20V33.5H6.5V39.5ZM17 36.5V41H23V36.5H17ZM20 38H2L2 44H20V38ZM5 14V9.5H-1V14H5ZM2 12.5H15.5V6.5H2L2 12.5ZM12.5 9.5V14H18.5V9.5H12.5ZM15.5 11H2V17H15.5V11ZM9.5 27.5V23H3.5V27.5H9.5ZM6.5 26H15.5V20H6.5V26ZM12.5 23V27.5H18.5V23H12.5ZM15.5 24.5H6.5V30.5H15.5V24.5ZM18.5 23V14H12.5V23H18.5ZM15.5 17H20V11H15.5V17ZM17 14V23H23V14H17ZM20 20H15.5V26H20V20ZM38 41H35V44H38V41ZM38 36.5V33.5H35V36.5H38ZM51.5 36.5H54.5V33.5H51.5V36.5ZM51.5 41V44H54.5V41H51.5ZM38 14H35V17H38V14ZM38 9.5V6.5H35V9.5H38ZM51.5 9.5H54.5V6.5H51.5V9.5ZM51.5 14V17H54.5V14H51.5ZM42.5 27.5H39.5V30.5H42.5V27.5ZM42.5 23V20H39.5V23H42.5ZM51.5 23H54.5V20H51.5V23ZM51.5 27.5V30.5H54.5V27.5H51.5ZM51.5 36.5H48.5V39.5H51.5V36.5ZM51.5 27.5V24.5H48.5V27.5H51.5ZM56 27.5H59V24.5H56V27.5ZM56 36.5V39.5H59V36.5H56ZM51.5 23H48.5V26H51.5V23ZM51.5 14V11H48.5V14H51.5ZM56 14H59V11H56V14ZM56 23V26H59V23H56ZM41 41V36.5H35V41H41ZM38 39.5H51.5V33.5H38V39.5ZM48.5 36.5V41H54.5V36.5H48.5ZM51.5 38H38V44H51.5V38ZM41 14V9.5H35V14H41ZM38 12.5H51.5V6.5H38V12.5ZM48.5 9.5V14H54.5V9.5H48.5ZM51.5 11H38V17H51.5V11ZM45.5 27.5V23H39.5V27.5H45.5ZM42.5 26H51.5V20H42.5V26ZM48.5 23V27.5H54.5V23H48.5ZM51.5 24.5H42.5V30.5H51.5V24.5ZM54.5 36.5V27.5H48.5V36.5H54.5ZM51.5 30.5H56V24.5H51.5V30.5ZM53 27.5V36.5H59V27.5H53ZM56 33.5H51.5V39.5H56V33.5ZM54.5 23V14H48.5V23H54.5ZM51.5 17H56V11H51.5V17ZM53 14V23H59V14H53ZM56 20H51.5V26H56V20ZM74 32H71V35H74V32ZM74 27.5V24.5H71V27.5H74ZM78.5 27.5V30.5H81.5V27.5H78.5ZM78.5 18.5H81.5V15.5H78.5V18.5ZM74 18.5H71V21.5H74V18.5ZM74 14V11H71V14H74ZM78.5 14V17H81.5V14H78.5ZM78.5 9.5V6.5H75.5V9.5H78.5ZM83 9.5H86V6.5H83V9.5ZM83 14H80V17H83V14ZM87.5 14V17H90.5V14H87.5ZM87.5 9.5V6.5H84.5V9.5H87.5ZM92 9.5H95V6.5H92V9.5ZM92 14H89V17H92V14ZM96.5 14H99.5V11H96.5V14ZM96.5 18.5V21.5H99.5V18.5H96.5ZM92 18.5V15.5H89V18.5H92ZM92 27.5H89V30.5H92V27.5ZM96.5 27.5H99.5V24.5H96.5V27.5ZM96.5 32V35H99.5V32H96.5ZM92 32V29H89V32H92ZM92 41V44H95V41H92ZM87.5 41H84.5V44H87.5V41ZM87.5 32H90.5V29H87.5V32ZM83 32V29H80V32H83ZM83 41V44H86V41H83ZM78.5 41H75.5V44H78.5V41ZM78.5 32H81.5V29H78.5V32ZM83 27.5H80V30.5H83V27.5ZM87.5 27.5V30.5H90.5V27.5H87.5ZM87.5 18.5H90.5V15.5H87.5V18.5ZM83 18.5V15.5H80V18.5H83ZM77 32V27.5H71V32H77ZM74 30.5H78.5V24.5H74V30.5ZM81.5 27.5V18.5H75.5V27.5H81.5ZM78.5 15.5H74V21.5H78.5V15.5ZM77 18.5V14H71V18.5H77ZM74 17H78.5V11H74V17ZM81.5 14V9.5H75.5V14H81.5ZM78.5 12.5H83V6.5H78.5V12.5ZM80 9.5V14H86V9.5H80ZM83 17H87.5V11H83V17ZM90.5 14V9.5H84.5V14H90.5ZM87.5 12.5H92V6.5H87.5V12.5ZM89 9.5V14H95V9.5H89ZM92 17H96.5V11H92V17ZM93.5 14V18.5H99.5V14H93.5ZM96.5 15.5H92V21.5H96.5V15.5ZM89 18.5V27.5H95V18.5H89ZM92 30.5H96.5V24.5H92V30.5ZM93.5 27.5V32H99.5V27.5H93.5ZM96.5 29H92V35H96.5V29ZM89 32V41H95V32H89ZM92 38H87.5V44H92V38ZM90.5 41V32H84.5V41H90.5ZM87.5 29H83V35H87.5V29ZM80 32V41H86V32H80ZM83 38H78.5V44H83V38ZM81.5 41V32H75.5V41H81.5ZM78.5 29H74V35H78.5V29ZM83 30.5H87.5V24.5H83V30.5ZM90.5 27.5V18.5H84.5V27.5H90.5ZM87.5 15.5H83V21.5H87.5V15.5ZM80 18.5V27.5H86V18.5H80Z" fill="black" fill-opacity="0.7" mask="url(#path-1-outside-1_343_63)"/>
</svg>
